<svg xmlns="http://www.w3.org/2000/svg" viewBox="0 0 630 430" class="svg-logo" width="630" height="430" style="height: auto;"><rect rx="0" ry="0" width="100%" height="100%" fill="rgba(165, 231, 213, 1.0)"></rect><g data-element="wrapper" transform="translate(-88.09000244141109 19.076177978513257) scale(0.8000000000000096)"><g data-element="container" transform="translate(238.8095257471478 138.8095238095238) scale(0.25396825396825395)"><g><path id="fill_x5F_1_11_" fill="transparent" d="M300,6.534c-85.614,0-168.298,12.493-246.397,35.651v246.803
	c0,149.628,105.642,274.542,246.397,304.333c140.755-29.791,246.397-154.706,246.397-304.333V42.185
	C468.298,19.027,385.614,6.534,300,6.534z"></path>
<path id="frame_x5F_1_11_" d="M548.253,35.919C467.868,12.086,384.343,0,300.002,0C215.657,0,132.132,12.086,51.747,35.919
	l-4.677,1.388v251.681c0,149.192,105.804,279.873,251.579,310.728l1.353,0.284l1.353-0.284
	C447.126,568.86,552.93,438.18,552.93,288.988V37.307L548.253,35.919z M539.862,288.988c0,142.591-100.792,267.548-239.86,297.653
	C160.93,556.536,60.138,431.579,60.138,288.988V47.076c77.74-22.57,158.41-34.008,239.863-34.008
	c81.451,0,162.12,11.438,239.86,34.008V288.988z M69.939,63.485v-9.016l8.71-2.396c1.723-0.466,3.535,0.558,4.007,2.304
	c0.469,1.742-0.562,3.535-2.304,4.007l-3.88,1.059v4.042c0,1.806-1.461,3.267-3.267,3.267
	C71.401,66.752,69.939,65.291,69.939,63.485z M404.73,32.578c0.227-1.787,1.86-3.028,3.656-2.827
	c4.231,0.542,8.455,1.117,12.676,1.716c1.784,0.255,3.028,1.911,2.772,3.698c-0.233,1.627-1.63,2.805-3.232,2.805
	c-0.153,0-0.31-0.01-0.466-0.032c-4.189-0.6-8.382-1.168-12.58-1.704C405.767,36.005,404.504,34.368,404.73,32.578z M442.551,38.136
	c0.31-1.777,1.994-2.967,3.778-2.661c4.205,0.731,8.401,1.493,12.59,2.291c1.771,0.338,2.935,2.048,2.597,3.822
	c-0.3,1.563-1.669,2.654-3.207,2.654c-0.201,0-0.408-0.019-0.616-0.057c-4.151-0.791-8.315-1.547-12.481-2.272
	C443.431,41.604,442.241,39.913,442.551,38.136z M192.337,36.251c-4.195,0.533-8.388,1.101-12.577,1.704
	c-0.156,0.022-0.313,0.032-0.466,0.032c-1.598,0-2.996-1.174-3.232-2.805c-0.255-1.784,0.986-3.439,2.772-3.698
	c4.221-0.603,8.445-1.177,12.679-1.717c1.822-0.182,3.423,1.04,3.653,2.83C195.394,34.387,194.127,36.021,192.337,36.251z
	 M154.689,41.93c-4.17,0.728-8.334,1.484-12.491,2.272c-0.207,0.038-0.412,0.057-0.613,0.057c-1.538,0-2.91-1.091-3.206-2.658
	c-0.335-1.774,0.83-3.484,2.6-3.819c4.189-0.794,8.385-1.557,12.587-2.291c1.78-0.294,3.468,0.881,3.781,2.658
	C157.656,39.926,156.466,41.62,154.689,41.93z M480.084,45.398c0.393-1.761,2.103-2.871,3.896-2.485
	c4.164,0.919,8.321,1.87,12.475,2.859c1.755,0.418,2.84,2.179,2.422,3.934c-0.357,1.5-1.697,2.511-3.175,2.511
	c-0.252,0-0.504-0.029-0.759-0.089c-4.116-0.976-8.241-1.921-12.373-2.833C480.809,48.904,479.695,47.159,480.084,45.398z
	 M117.335,49.313c-4.132,0.919-8.257,1.86-12.376,2.836c-0.252,0.061-0.507,0.089-0.756,0.089c-1.48,0-2.82-1.011-3.174-2.514
	c-0.418-1.755,0.67-3.516,2.425-3.931c4.145-0.983,8.302-1.937,12.465-2.862c1.771-0.377,3.506,0.721,3.899,2.482
	C120.206,47.175,119.096,48.92,117.335,49.313z M300.002,22.87l6.343,0.022c1.803,0.013,3.254,1.487,3.242,3.293
	c-0.013,1.796-1.474,3.242-3.267,3.242h-0.025l-6.292-0.022l-6.4,0.025h-0.026c-1.793,0-3.254-1.445-3.267-3.242
	c-0.013-1.806,1.439-3.28,3.242-3.293L300.002,22.87z M230.209,32.272c-4.218,0.345-8.432,0.724-12.644,1.133
	c-0.105,0.009-0.214,0.016-0.319,0.016c-1.662,0-3.085-1.263-3.248-2.951c-0.175-1.796,1.139-3.392,2.935-3.567
	c4.243-0.415,8.49-0.795,12.74-1.145c1.838-0.128,3.376,1.193,3.525,2.99C233.345,30.546,232.005,32.122,230.209,32.272z
	 M328.531,26.606c0.064-1.803,1.532-3.35,3.385-3.143c4.266,0.16,8.525,0.348,12.781,0.571c1.803,0.096,3.184,1.633,3.092,3.436
	c-0.093,1.742-1.535,3.095-3.261,3.095c-0.057,0-0.115,0-0.176-0.003c-4.224-0.223-8.452-0.412-12.679-0.571
	C329.868,29.924,328.461,28.408,328.531,26.606z M366.699,28.737c0.147-1.796,1.713-3.111,3.526-2.99
	c4.25,0.351,8.499,0.731,12.743,1.149c1.796,0.176,3.108,1.774,2.932,3.57c-0.166,1.688-1.586,2.948-3.248,2.948
	c-0.105,0-0.214-0.006-0.322-0.016c-4.212-0.412-8.423-0.791-12.641-1.136C367.893,32.113,366.553,30.537,366.699,28.737z
	 M255.363,30.568c-1.726,0-3.168-1.353-3.261-3.098c-0.092-1.803,1.292-3.337,3.095-3.433c4.256-0.22,8.515-0.412,12.778-0.568
	c1.784-0.125,3.318,1.34,3.385,3.143c0.067,1.803-1.34,3.318-3.143,3.385c-4.231,0.156-8.458,0.348-12.682,0.568
	C255.478,30.568,255.42,30.568,255.363,30.568z M517.343,54.376c0.472-1.748,2.268-2.766,4.007-2.304l8.713,2.396v9.016
	c0,1.806-1.461,3.267-3.267,3.267c-1.806,0-3.267-1.461-3.267-3.267v-4.042l-3.883-1.059
	C517.905,57.911,516.874,56.118,517.343,54.376z M121.696,443.409c0.97,1.522,0.52,3.542-1.002,4.511
	c-0.546,0.345-1.152,0.51-1.752,0.51c-1.078,0-2.138-0.533-2.76-1.512c-2.352-3.695-4.626-7.44-6.812-11.237
	c-0.903-1.563-0.364-3.561,1.2-4.46c1.567-0.903,3.564-0.364,4.46,1.2C117.172,436.135,119.396,439.797,121.696,443.409z
	 M171.232,502.293c1.334,1.216,1.429,3.283,0.214,4.617c-0.645,0.705-1.528,1.066-2.415,1.066c-0.788,0-1.573-0.281-2.202-0.852
	c-3.242-2.954-6.416-5.982-9.52-9.071c-1.279-1.273-1.286-3.34-0.013-4.62c1.273-1.276,3.34-1.286,4.62-0.013
	C164.956,496.445,168.061,499.403,171.232,502.293z M144.515,474.485c1.161,1.382,0.983,3.439-0.399,4.604
	c-0.613,0.514-1.359,0.766-2.099,0.766c-0.932,0-1.857-0.396-2.505-1.164c-2.82-3.353-5.571-6.77-8.238-10.245
	c-1.101-1.432-0.829-3.484,0.6-4.582c1.439-1.101,3.491-0.823,4.582,0.6C139.065,467.861,141.752,471.202,144.515,474.485z
	 M201.398,526.321c1.484,1.027,1.854,3.063,0.826,4.547c-0.635,0.916-1.653,1.407-2.69,1.407c-0.641,0-1.289-0.188-1.857-0.581
	c-3.612-2.501-7.16-5.079-10.647-7.734c-1.436-1.094-1.713-3.143-0.622-4.578c1.094-1.439,3.143-1.716,4.578-0.622
	C194.398,521.357,197.87,523.877,201.398,526.321z M77.718,339.934c-0.182,0.032-0.364,0.045-0.542,0.045
	c-1.566,0-2.951-1.129-3.219-2.728c-0.721-4.31-1.353-8.649-1.882-13.014c-0.217-1.79,1.059-3.417,2.852-3.637
	c1.806-0.201,3.42,1.062,3.637,2.852c0.517,4.263,1.13,8.506,1.838,12.721C80.698,337.95,79.498,339.634,77.718,339.934z
	 M103.178,409.599c0.759,1.637,0.048,3.58-1.589,4.339c-0.444,0.207-0.912,0.303-1.372,0.303c-1.235,0-2.412-0.699-2.967-1.892
	c-1.841-3.969-3.596-7.979-5.264-12.035c-0.686-1.672,0.108-3.58,1.777-4.266c1.681-0.673,3.58,0.108,4.266,1.78
	C99.659,401.792,101.376,405.72,103.178,409.599z M69.939,180.858V167.85c0-1.806,1.461-3.267,3.267-3.267
	c1.806,0,3.267,1.461,3.267,3.267v13.008c0,1.806-1.461,3.267-3.267,3.267C71.401,184.125,69.939,182.664,69.939,180.858z
	 M69.939,219.878V206.87c0-1.806,1.461-3.267,3.267-3.267c1.806,0,3.267,1.461,3.267,3.267v13.008c0,1.806-1.461,3.267-3.267,3.267
	C71.401,223.145,69.939,221.684,69.939,219.878z M69.939,102.811V89.804c0-1.806,1.461-3.267,3.267-3.267
	c1.806,0,3.267,1.461,3.267,3.267v13.008c0,1.806-1.461,3.267-3.267,3.267C71.401,106.078,69.939,104.617,69.939,102.811z
	 M69.939,141.835v-13.008c0-1.806,1.461-3.267,3.267-3.267c1.806,0,3.267,1.461,3.267,3.267v13.008c0,1.806-1.461,3.267-3.267,3.267
	C71.401,145.102,69.939,143.641,69.939,141.835z M89.319,373.652c0.536,1.723-0.431,3.554-2.154,4.087
	c-0.322,0.099-0.648,0.147-0.967,0.147c-1.394,0-2.686-0.9-3.12-2.3c-1.295-4.17-2.498-8.378-3.609-12.619
	c-0.456-1.745,0.59-3.529,2.336-3.988c1.748-0.431,3.529,0.587,3.988,2.336C86.878,365.458,88.055,369.571,89.319,373.652z
	 M69.939,258.901v-13.008c0-1.806,1.461-3.267,3.267-3.267c1.806,0,3.267,1.461,3.267,3.267v13.008c0,1.806-1.461,3.267-3.267,3.267
	C71.401,262.168,69.939,260.707,69.939,258.901z M73.34,301.189c-1.755,0-3.206-1.398-3.264-3.165
	c-0.092-3.005-0.137-6.014-0.137-9.036v-4.074c0-1.806,1.461-3.267,3.267-3.267c1.806,0,3.267,1.461,3.267,3.267v4.074
	c0,2.951,0.045,5.896,0.134,8.831c0.058,1.803-1.359,3.312-3.162,3.369H73.34z M271.989,565.415
	c-0.472,1.346-1.736,2.189-3.085,2.189c-0.357,0-0.721-0.057-1.078-0.182c-4.157-1.452-8.27-2.996-12.338-4.62
	c-1.675-0.67-2.492-2.572-1.822-4.247c0.67-1.681,2.568-2.495,4.247-1.822c3.979,1.592,8.002,3.098,12.07,4.518
	C271.682,561.848,272.582,563.711,271.989,565.415z M428.694,506.783c-1.216-1.334-1.12-3.398,0.214-4.617
	c3.165-2.884,6.263-5.845,9.297-8.87c1.276-1.27,3.344-1.276,4.62,0.006c1.273,1.276,1.273,3.344-0.006,4.62
	c-3.101,3.095-6.273,6.12-9.508,9.074c-0.625,0.571-1.413,0.852-2.201,0.852C430.223,507.848,429.342,507.491,428.694,506.783z
	 M455.597,474.36c2.757-3.286,5.443-6.63,8.056-10.031c1.101-1.423,3.149-1.701,4.582-0.6c1.429,1.098,1.701,3.149,0.6,4.582
	c-2.67,3.478-5.414,6.892-8.235,10.248c-0.645,0.772-1.57,1.168-2.504,1.168c-0.74,0-1.487-0.252-2.096-0.766
	C454.614,477.803,454.436,475.742,455.597,474.36z M397.954,530.75c-1.03-1.484-0.66-3.519,0.82-4.547
	c3.522-2.444,6.987-4.964,10.388-7.558c1.445-1.094,3.487-0.81,4.582,0.619c1.091,1.436,0.814,3.487-0.619,4.582
	c-3.484,2.651-7.025,5.229-10.624,7.724c-0.568,0.396-1.219,0.584-1.86,0.584C399.607,532.154,398.586,531.662,397.954,530.75z
	 M478.4,443.262c2.3-3.615,4.524-7.284,6.668-11.004c0.9-1.563,2.894-2.103,4.46-1.2c1.563,0.9,2.103,2.897,1.2,4.46
	c-2.189,3.803-4.464,7.555-6.815,11.253c-0.622,0.976-1.678,1.512-2.76,1.512c-0.6,0-1.206-0.166-1.752-0.51
	C477.88,446.804,477.43,444.788,478.4,443.262z M328.289,565.322c-0.593-1.704,0.303-3.567,2.007-4.164
	c4.055-1.417,8.069-2.926,12.031-4.518c1.669-0.67,3.58,0.14,4.25,1.812c0.673,1.675-0.137,3.577-1.812,4.25
	c-4.058,1.63-8.161,3.171-12.312,4.626c-0.357,0.124-0.721,0.182-1.078,0.182C330.024,567.511,328.761,566.669,328.289,565.322z
	 M235.93,550.499c-0.577,1.133-1.723,1.784-2.913,1.784c-0.498,0-1.005-0.115-1.48-0.357c-3.918-1.997-7.782-4.077-11.594-6.244
	c-1.57-0.89-2.118-2.884-1.225-4.454c0.887-1.57,2.878-2.122,4.454-1.225c3.723,2.115,7.504,4.151,11.333,6.104
	C236.111,546.926,236.749,548.891,235.93,550.499z M364.3,550.384c-0.82-1.608-0.182-3.577,1.423-4.397
	c3.819-1.949,7.584-3.982,11.298-6.091c1.579-0.893,3.567-0.341,4.454,1.225c0.893,1.57,0.345,3.564-1.225,4.454
	c-3.797,2.16-7.651,4.237-11.553,6.231c-0.475,0.242-0.983,0.357-1.484,0.357C366.023,552.164,364.878,551.514,364.3,550.384z
	 M496.908,409.43c1.796-3.889,3.516-7.823,5.15-11.795c0.683-1.672,2.61-2.473,4.262-1.78c1.669,0.686,2.466,2.594,1.78,4.263
	c-1.665,4.061-3.423,8.078-5.264,12.057c-0.549,1.193-1.732,1.895-2.967,1.895c-0.46,0-0.925-0.096-1.369-0.303
	C496.863,413.01,496.148,411.07,496.908,409.43z M309.637,570.912c0.44,1.748-0.622,3.522-2.374,3.963
	c-2.17,0.546-4.352,1.069-6.537,1.567l-0.724,0.163l-0.721-0.163c-2.096-0.475-4.179-0.973-6.257-1.493
	c-1.748-0.437-2.814-2.211-2.374-3.963c0.437-1.752,2.201-2.814,3.963-2.374c1.787,0.447,3.583,0.877,5.389,1.292
	c1.895-0.437,3.787-0.893,5.673-1.365C307.404,568.107,309.197,569.16,309.637,570.912z M530.064,284.611v4.377
	c0,2.916-0.042,5.826-0.128,8.726c-0.054,1.771-1.506,3.168-3.264,3.168h-0.102c-1.803-0.054-3.222-1.56-3.168-3.366
	c0.086-2.836,0.128-5.676,0.128-8.528v-4.377c0-1.806,1.461-3.267,3.267-3.267C528.602,281.343,530.064,282.805,530.064,284.611z
	 M530.064,206.567v13.008c0,1.806-1.461,3.267-3.267,3.267c-1.806,0-3.267-1.461-3.267-3.267v-13.008
	c0-1.806,1.461-3.267,3.267-3.267C528.602,203.3,530.064,204.761,530.064,206.567z M530.064,245.587v13.008
	c0,1.806-1.461,3.267-3.267,3.267c-1.806,0-3.267-1.461-3.267-3.267v-13.008c0-1.806,1.461-3.267,3.267-3.267
	C528.602,242.32,530.064,243.781,530.064,245.587z M527.968,323.934c-0.526,4.377-1.152,8.726-1.873,13.049
	c-0.265,1.598-1.65,2.731-3.219,2.731c-0.179,0-0.357-0.013-0.539-0.045c-1.78-0.297-2.983-1.978-2.686-3.759
	c0.702-4.227,1.315-8.48,1.828-12.756c0.217-1.79,1.854-3.066,3.634-2.855C526.905,320.517,528.181,322.144,527.968,323.934z
	 M530.064,167.544v13.008c0,1.806-1.461,3.267-3.267,3.267c-1.806,0-3.267-1.461-3.267-3.267v-13.008
	c0-1.806,1.461-3.267,3.267-3.267C528.602,164.277,530.064,165.738,530.064,167.544z M530.064,89.501v13.008
	c0,1.806-1.461,3.267-3.267,3.267c-1.806,0-3.267-1.461-3.267-3.267V89.501c0-1.806,1.461-3.267,3.267-3.267
	C528.602,86.233,530.064,87.695,530.064,89.501z M530.064,128.524v13.005c0,1.806-1.461,3.267-3.267,3.267
	c-1.806,0-3.267-1.461-3.267-3.267v-13.005c0-1.806,1.461-3.267,3.267-3.267C528.602,125.257,530.064,126.718,530.064,128.524z
	 M510.751,373.431c1.267-4.09,2.444-8.219,3.529-12.379c0.456-1.748,2.256-2.785,3.985-2.339c1.748,0.456,2.795,2.24,2.339,3.985
	c-1.11,4.256-2.313,8.48-3.612,12.666c-0.434,1.401-1.726,2.3-3.12,2.3c-0.319,0-0.644-0.048-0.967-0.147
	C511.182,376.986,510.216,375.154,510.751,373.431z" fill="rgba(71, 117, 112, 1.0)"></path></g></g><g><g data-element="icon" transform="scale(0.12428890155871757) translate(2234.4169604807366 1429.8394083130918)"><path id="color_x5F_1" fill="#514E4C" d="M286.397,387.209c0,2.227-0.87,6.49-9.71,8.95v14.3c0,2.866-1.552,5.178-4.417,5.178    c-2.857,0-4.419-2.313-4.419-5.178v-15.181c0-2.477-6.093-6.032-6.093-8.07c0-3.288,6.543-5.954,13.55-5.954    C282.316,381.255,286.397,383.921,286.397,387.209z M238.173,353.189c-4.998,0-9.055,4.056-9.055,9.054    c0,5.005,4.057,9.053,9.055,9.053c4.996,0,9.053-4.048,9.053-9.053C247.226,357.245,243.169,353.189,238.173,353.189z     M310.633,353.189c-5.006,0-9.063,4.056-9.063,9.054c0,5.005,4.057,9.053,9.063,9.053c4.998,0,9.052-4.048,9.052-9.053    C319.685,357.245,315.63,353.189,310.633,353.189z M436.005,120.626c-5.712,0-10.347,4.635-10.347,10.352    c0,5.718,4.635,10.352,10.347,10.352c5.722,0,10.357-4.634,10.357-10.352C446.362,125.261,441.727,120.626,436.005,120.626z     M579.598,591.162c0,4.091-3.253,8.838-7.741,8.838h-25.038c-1.586,0-3.77-0.864-5.505-2.633c-1.528-1.545-2.26-4.134-2.236-6.128    c3.402-254.673-73.952-535.604-74.728-538.413c-0.779-2.779,0.068-5.731,2.208-7.702c1.415-1.304,3.263-2.024,5.205-2.024    c0.922,0,1.837,0.164,2.719,0.487c13.169,4.855,26.116,7.319,38.447,7.319c4.186,0,8.207-0.284,12.022-0.845    c-24.025-25.071-48.312-32.303-54.536-33.814C447.25,23.38,430.275,53.3,430.103,53.603c-1.364,2.455-3.952,3.979-6.768,3.979    c-0.818,0-1.638-0.13-2.416-0.389c-7.25-2.382-15.931-3.586-25.803-3.586c-17.27,0-32.029,3.69-32.175,3.725    c-0.63,0.159-1.278,0.242-1.915,0.242c-2.546,0-4.93-1.256-6.37-3.353c-24.086-34.97-53.94-38.746-65.651-38.746    c-1.786,0-3.262,0.082-4.342,0.173c-6.041,5.717-27.978,26.551-39.491,38.22c3.987,0.634,9.294,1.001,14.913,1.001    c13.964,0,32.675-2.399,39.44-9.165c1.46-1.463,3.402-2.266,5.474-2.266c1.327,0,2.64,0.341,3.796,0.993    c3.01,1.696,4.539,5.23,3.718,8.591c-0.285,1.17-28.159,115.242-45.991,224.416c5.109-0.177,10.547-0.298,16.2-0.298    c13.911,0,26.537,0.681,37.551,2.024l34.539-37.331c1.466-1.58,3.538-2.485,5.678-2.485c0.467,0,0.924,0.042,1.372,0.12    c2.607,0.466,4.772,2.204,5.792,4.656c0.163,0.396,14.842,36.196,26.322,90.451l17.485-9.019c1.096-0.57,2.332-0.876,3.558-0.876    c2.907,0,5.539,1.6,6.885,4.19c0.941,1.83,1.124,3.901,0.483,5.868c-0.622,1.977-1.984,3.531-3.823,4.48l-21.454,10.952    c0.251,1.372,0.525,2.485,0.768,3.875c0.948,5.273,1.854,7.345,2.725,16.181h20.127c4.264,0,7.742,4.592,7.742,8.838    c0,4.246-3.478,8.837-7.742,8.837h-17.977c0.941,8.837,1.778,14.533,2.485,22.576l13.326,6.145c1.838,0.95,3.201,2.52,3.823,4.496    c0.64,1.968,0.457,4.013-0.483,5.843c-1.338,2.589-3.978,4.091-6.885,4.091c-1.236,0-2.461-0.534-3.558-1.095l-4.885-2.977    c2.702,47.32,0.06,102.321-15.052,155.347h18.848c4.489,0,7.75,4.746,7.75,8.837c0,4.091-3.261,8.838-7.75,8.838h-29.17    c-1.173,0-4.297-0.864-6.221-3.453c-1.477-2.002-1.892-5.143-1.184-7.456c17.788-58.359,20.66-117.252,16.829-169.414    l-23.319-12.013c-1.845-0.95-3.201-2.537-3.83-4.505c-0.631-1.967-0.458-4.022,0.491-5.86c1.337-2.589,3.979-4.1,6.886-4.1    c1.227,0,2.452,0.466,3.548,1.035l14.619,7.897c-0.534-5.074-1.146-14.231-1.796-14.231H375.18c-4.264,0-7.742-4.592-7.742-8.837    c0-4.246,3.478-8.838,7.742-8.838h9.845c-0.707,0-1.44-8.543-2.217-12.885l-8.406,4.755c-1.096,0.56-2.321,0.863-3.548,0.863    c-2.907,0-5.549-1.606-6.886-4.203c-0.949-1.838-1.123-3.926-0.491-5.903c0.629-1.968,1.986-3.581,3.83-4.523l12.445-6.421    c-7.353-35.846-16.319-64.145-22.102-80.47l-28.731,31.108c-1.484,1.601-3.563,2.52-5.711,2.52c-0.354,0-0.708-0.026-1.053-0.074    c-11.082-1.574-24.234-2.372-39.104-2.372c-25.556,0-47.752,2.391-48.686,2.494c-0.3,0.034-0.604,0.052-0.896,0.052    c-2.624,0-5.059-1.321-6.481-3.535c-8.598-13.299-21.465-29.015-30.112-34.564c-4.695,13.865-14.413,44.916-22.507,85.963    l10.251,5.29c1.849,0.941,3.202,2.538,3.835,4.505c0.628,1.967,0.447,4.039-0.501,5.886c-1.33,2.589-3.972,4.143-6.888,4.143    c-1.218,0-2.443-0.406-3.538-0.976l-6.121-3.357c-0.689,3.97-1.371,11.702-2.011,11.702h7.043c4.264,0,7.742,4.592,7.742,8.838    c0,4.246-3.478,8.837-7.742,8.837h-9.286c-0.605,0-1.148,8.302-1.683,12.92l12.091-6.948c1.087-0.561,2.348-0.864,3.573-0.864    c2.907,0,5.608,1.606,6.939,4.195c0.949,1.847,1.251,3.936,0.622,5.903c-0.631,1.976-1.743,3.582-3.591,4.531l-20.557,10.849    c-4.6,53.068-2.295,113.066,12.936,171.467c0.303,1.157,1.994,2.296,1.994,3.384c0,0.035,0,0.069,0,0.103    c-8.837,3.797-5.747,6.56-9.597,6.56c-0.396,0-2.744-0.035-3.141-0.086c-60.689-9.381-100.657-37.534-125.692-88.617    c-14.802-30.18-20.644-66.385-20.644-104.703v-0.225c0-10.909,1.26-33.624,18.935-36.877c1.51-0.277,3.089-0.414,4.531-0.414    c4.591,0,8.75,1.398,12.359,4.168c11.831,9.045,13.592,30.413,14.75,44.541c0.199,2.408,0.379,4.687,0.595,6.353    c3.522,28.316,8.804,50.341,16.629,69.276c12.049,29.162,36.395,50.729,63.537,57.323c-6.559-42.582-7.026-84.922-4.194-123.966    l-7.086,3.659c-1.095,0.57-2.32,0.89-3.545,0.89c-2.919,0-5.55-1.563-6.888-4.151c-0.95-1.839-1.121-3.85-0.493-5.818    c0.631-1.968,1.994-3.401,3.824-4.35l15.758-7.758c0.753-7.517,1.623-12.506,2.571-21.343h-20.797c-4.264,0-7.742-4.592-7.742-8.837    c0-4.246,3.477-8.838,7.742-8.838h22.974c1.035-8.837,2.131-12.755,3.271-19.063l-23.777-11.842    c-1.831-0.949-3.193-2.555-3.824-4.531c-0.628-1.967-0.457-4.056,0.493-5.903c1.338-2.589,3.969-4.194,6.888-4.194    c1.225,0,2.451,0.302,3.553,0.868l19.696,10.162c10.995-54.323,24.381-90.299,24.683-91.097c1.14-2.986,4.048-4.997,7.241-4.997    c16.286,0,36.489,26.754,45.266,39.644c3.117-0.289,7.734-0.678,13.359-1.045c13.775-85.199,33.719-173.566,42.825-212.38    c-9.406,2.951-21.274,4.612-33.382,4.612c-15.139,0-26.91-2.567-31.476-6.874c-4.167-3.932-4.391-9.938-0.534-14.278    c8.949-10.064,47.354-46.297,47.742-46.665c1.096-1.036,2.461-1.726,3.954-1.99C280.201,0.583,283.594,0,288.944,0    c16.771,0,48.676,5.39,75.396,41.171c6.464-1.277,17.814-3.072,30.602-3.072c9.064,0,17.418,0.902,24.867,2.697    c7.267-11.12,24.673-33.935,48.441-40.023c0.639-0.16,1.287-0.247,1.932-0.247c0.415,0,0.839,0.018,1.251,0.082    c1.607,0.268,39.692,6.974,73.713,48.925c1.501,1.856,2.071,4.298,1.51,6.624c-0.553,2.326-2.183,4.177-4.376,5.152    c-1.157,0.513-11.832,4.807-29.551,4.807c-9.657,0-19.678-1.781-29.852-4.418c14.681,56.84,73.316,299.689,71.771,520.626h17.208    C576.345,582.325,579.598,587.071,579.598,591.162z M158.315,582.316c-1.158-5.032-2.725-10.071-3.692-15.112    c-34.489-5.73-65.851-31.923-80.704-67.878c-8.364-20.256-13.956-43.54-17.65-73.28c-0.251-1.986-0.388-4.419-0.604-6.991    c-0.759-9.304-2.227-28.644-8.597-33.521c-0.879-0.673-1.544-0.975-2.728-0.975c-0.492,0-0.525,0.06-1.103,0.164    c-3.608,0.657-5.16,8.129-5.16,22.197v0.207c0,35.783,4.288,69.449,17.966,97.351C77.052,547.311,109.52,572.123,158.315,582.316z     M330.421,130.978c0,5.718,4.643,10.352,10.357,10.352c5.713,0,10.355-4.634,10.355-10.352c0-5.717-4.642-10.352-10.355-10.352    C335.065,120.626,330.421,125.261,330.421,130.978z M387.157,192.051c2.857,0,4.42-2.317,4.42-5.173V171.61    c8.838-1.334,14.377-6.097,14.377-11.815c0-6.748-7.828-12.224-17.872-12.224c-10.039,0-18.582,5.476-18.582,12.224    c0,5.692,4.403,10.426,13.24,11.794v15.289C382.739,189.734,384.293,192.051,387.157,192.051z"></path></g><text transform="translate(435.4549331665039 237.40000915527344)" fill="rgba(71, 117, 112, 1.0)" font-family="Mallanna" font-size="64" data-element="company-name" dx="0 0 0 0 0 0 0 0 0 0">ClinicPaws</text><text transform="translate(394.2361831665039 343.7999782562256)" fill="rgba(71, 117, 112, 1.0)" font-family="Libre Franklin" font-size="28.8" data-element="slogan" dx="0 0 0 0 0 0 0 0 0 0 0 0 0 0 0 0 0 0 0 0 0 0 0 0 0 0">Administra. Cuida. Conecta</text></g></g></svg>